Coordinates
version=1
nRows=20
nColumns=23
inDegrees=yes

Units are S.I. units (second, meters, Newtons, ...)
If the header above contains a line with 'inDegrees', this indicates whether rotational values are in degrees (yes) or radians (no).

endheader
time	pelvis_tilt	pelvis_list	pelvis_rotation	pelvis_tx	pelvis_ty	pelvis_tz	hip_flexion_r	hip_adduction_r	hip_rotation_r	knee_angle_r	knee_angle_r_beta	ankle_angle_r	subtalar_angle_r	mtp_angle_r	hip_flexion_l	hip_adduction_l	hip_rotation_l	knee_angle_l	knee_angle_l_beta	ankle_angle_l	subtalar_angle_l	mtp_angle_l
      0.00000000	     -6.86290601	      4.49524065	      4.13902885	      2.04630261	      0.89345972	      0.98056547	    -14.23438157	     -3.16658004	     -9.95578440	     67.16773123	      1.17229806	    -18.77372777	    -21.05912075	      0.00000000	     26.36706857	     10.95301877	      0.41708836	      7.39907542	      0.12913823	     10.64918024	     -1.28104246	      0.00000000
      0.00666667	     -6.15476722	      5.19918532	      5.20183240	      2.04487627	      0.88925243	      0.97988631	    -13.25385015	     -4.04017836	    -11.00181187	     71.86193765	      1.25422742	    -20.12076650	    -20.63197247	      0.00000000	     26.27955952	     12.02649312	      0.06442605	     10.97228196	      0.19150245	      8.39374761	     -3.17744704	      0.00000000
      0.01333333	     -6.15146654	      5.63461422	      6.21483234	      2.04300790	      0.88370992	      0.97931534	    -11.45549264	     -4.76013735	    -11.84729685	     76.66696253	      1.33809092	    -21.01323919	    -19.77825414	      0.00000000	     27.18536323	     12.80056687	     -0.34198737	     15.01262059	      0.26201966	      6.50097893	     -4.82936878	      0.00000000
      0.02000000	     -5.78485610	      6.10012862	      7.21181333	      2.04123336	      0.87837028	      0.97888256	    -10.20910552	     -5.44224565	    -12.63104974	     81.12643917	      1.41592347	    -21.88382837	    -19.25202323	      0.00000000	     27.61862982	     13.54280854	     -0.60127828	     19.03638603	      0.33224761	      5.14802963	     -6.46510317	      0.00000000
      0.02666667	     -5.45472412	      6.47185871	      8.16289489	      2.03924883	      0.87288792	      0.97854432	     -8.92012065	     -6.05095762	    -13.30339010	     85.41976561	      1.49085616	    -22.46896325	    -18.83183162	      0.00000000	     28.06251446	     14.17739109	     -0.67699499	     23.09611058	      0.40310317	      4.34354369	     -8.00338529	      0.00000000
      0.03333333	     -5.06838240	      6.78157603	      9.06020051	      2.03703051	      0.86750656	      0.97827609	     -7.65701435	     -6.62395855	    -13.87627511	     89.53230335	      1.56263348	    -22.73578952	    -18.57463615	      0.00000000	     28.37664993	     14.75969626	     -0.49061662	     27.13648954	      0.47362109	      4.32954289	     -9.44802251	      0.00000000
      0.04000000	     -4.67608814	      7.01764970	      9.88263996	      2.03458573	      0.86228708	      0.97803850	     -6.31626198	     -7.17612360	    -14.32310635	     93.47443791	      1.63143671	    -22.69257439	    -18.45022664	      0.00000000	     28.59208824	     15.26657631	     -0.14748232	     31.09214328	      0.54266027	      4.99407497	    -10.68930992	      0.00000000
      0.04666667	     -4.20446430	      7.15418079	     10.65010122	      2.03198637	      0.85746625	      0.97778311	     -4.96194084	     -7.66841987	    -14.67639453	     97.18256175	      1.69615568	    -22.40457650	    -18.41928242	      0.00000000	     28.58144255	     15.67460974	      0.38992528	     34.89435452	      0.60902138	      6.32620724	    -11.64517810	      0.00000000
      0.05333333	     -3.70302772	      7.22858086	     11.25618465	      2.02928687	      0.85305606	      0.97762789	     -3.48882243	     -8.14507405	    -14.79953756	    100.68709725	      1.75732136	    -21.92293696	    -18.48093828	      0.00000000	     28.36452924	     15.93410713	      0.90506553	     38.43388091	      0.67079777	      8.16651860	    -12.21597645	      0.00000000
      0.06000000	     -3.13932357	      7.16281371	     11.78875691	      2.02656350	      0.84924277	      0.97743126	     -1.93415066	     -8.52250132	    -14.81325438	    103.90413600	      1.81346928	    -21.35486679	    -18.55058015	      0.00000000	     27.85415181	     16.00790217	      1.55254302	     41.63757406	      0.72671276	     10.33636765	    -12.47813557	      0.00000000
      0.06666667	     -2.15203100	      7.24678621	     12.08895341	      2.02402098	      0.84660460	      0.97732953	     -0.78320955	     -9.07072238	    -14.62993207	    106.74475829	      1.86304749	    -20.84097749	    -18.82584515	      0.00000000	     26.50792962	     16.06824132	      2.24777428	     44.22909199	      0.77194328	     12.37556098	    -13.00533457	      0.00000000
      0.07333333	     -2.14864983	      6.77965362	     12.33681579	      2.02116510	      0.84316427	      0.97734979	      1.91182147	     -9.13548713	    -14.12609788	    109.57404124	      1.91242779	    -20.07980231	    -18.72398848	      0.00000000	     26.27560247	     15.51391362	      2.54127449	     46.80534279	      0.81690734	     15.16606993	    -11.88705177	      0.00000000
      0.08000000	     -1.69388430	      6.45443032	     12.40729061	      2.01859279	      0.84099685	      0.97741513	      4.13919246	     -9.32213179	    -13.52576183	    111.93657455	      1.95366178	    -19.48376707	    -18.79941702	      0.00000000	     25.15351626	     14.95140784	      2.90721300	     48.71033863	      0.85015579	     17.58713345	    -11.16293919	      0.00000000
      0.08666667	     -1.36957164	      6.10819197	     12.32792592	      2.01615894	      0.83923853	      0.97752299	      6.64109581	     -9.51428444	    -12.74078056	    114.00135792	      1.98969905	    -18.92138641	    -18.88042881	      0.00000000	     23.91224187	     14.28735542	      3.16203987	     50.13598820	      0.87503807	     19.86129506	    -10.32442669	      0.00000000
      0.09333333	     -1.23822503	      5.72904236	     12.18688057	      2.01385488	      0.83779859	      0.97757538	      9.45028263	     -9.69316260	    -11.86884876	    115.74107742	      2.02006288	    -18.34686249	    -18.86641158	      0.00000000	     22.63959440	     13.59268461	      3.39988119	     51.11523955	      0.89212923	     21.85116475	     -9.63839446	      0.00000000
      0.10000000	     -1.27475044	      5.38850262	     11.93563008	      2.01174905	      0.83671823	      0.97764901	     12.49608317	     -9.91434435	    -10.88346626	    117.13533321	      2.04439723	    -17.80574247	    -18.89871534	      0.00000000	     21.30120890	     12.90224951	      3.50753210	     51.63851951	      0.90126219	     23.58311333	     -8.87990729	      0.00000000
      0.10666667	     -1.47833019	      5.08092286	     11.65468135	      2.00986859	      0.83595839	      0.97765461	     15.71231097	    -10.16245254	     -9.88626570	    118.15602857	      2.06221173	    -17.26885180	    -18.95346931	      0.00000000	     19.92904528	     12.26511424	      3.57224435	     51.77085462	      0.90357187	     25.01383287	     -8.17468909	      0.00000000
      0.11333333	     -1.82652656	      4.81259775	     11.39989986	      2.00830897	      0.83561162	      0.97753986	     19.01032233	    -10.44621281	     -8.96083050	    118.75963485	      2.07274665	    -16.71586506	    -19.02486507	      0.00000000	     18.48790648	     11.69913745	      3.64821095	     51.49995245	      0.89884373	     26.09623587	     -7.57370848	      0.00000000
      0.12000000	     -2.21982861	      4.58367835	     11.16056485	      2.00705989	      0.83576646	      0.97734316	     22.23992712	    -10.75366269	     -8.13170452	    118.92876364	      2.07569850	    -16.12246013	    -19.13305876	      0.00000000	     16.90277578	     11.22229050	      3.81105012	     50.87715878	      0.88797393	     26.83752617	     -7.09135644	      0.00000000
      0.12666667	     -2.82584698	      4.35672464	     11.00633489	      2.00609787	      0.83618915	      0.97695565	     25.55480066	    -11.09554823	     -7.45589726	    118.69199764	      2.07156615	    -15.48081029	    -19.21770864	      0.00000000	     15.41267972	     10.80025934	      4.01082332	     49.98543204	      0.87241037	     27.23909189	     -6.60108148	      0.00000000
